<svg xmlns="http://www.w3.org/2000/svg" width="190" height="29" viewBox="0 0 190 29" fill="none">
<path d="M14.113 0.343739C14.1675 -0.11458 14.8325 -0.11458 14.887 0.343739L15.3432 4.18862C15.9323 9.1534 19.8466 13.0677 24.8113 13.6568L28.6562 14.113C29.1146 14.1675 29.1146 14.8325 28.6562 14.887L24.8113 15.3432C19.8466 15.9323 15.9323 19.8466 15.3432 24.8113L14.887 28.6562C14.8325 29.1146 14.1675 29.1146 14.113 28.6562L13.6568 24.8113C13.0677 19.8466 9.1534 15.9323 4.18862 15.3432L0.343739 14.887C-0.11458 14.8325 -0.11458 14.1675 0.343739 14.113L4.18862 13.6568C9.1534 13.0677 13.0677 9.1534 13.6568 4.18862L14.113 0.343739Z" fill="#0A0A0A"/>
<path d="M37.9802 16.9102L41.3552 16.582C41.5583 17.7148 41.9684 18.5469 42.5856 19.0781C43.2106 19.6094 44.0505 19.875 45.1052 19.875C46.2223 19.875 47.0622 19.6406 47.6247 19.1719C48.195 18.6953 48.4802 18.1406 48.4802 17.5078C48.4802 17.1016 48.3591 16.7578 48.1169 16.4766C47.8825 16.1875 47.4684 15.9375 46.8747 15.7266C46.4684 15.5859 45.5427 15.3359 44.0973 14.9766C42.238 14.5156 40.9333 13.9492 40.1833 13.2773C39.1286 12.332 38.6012 11.1797 38.6012 9.82031C38.6012 8.94531 38.8473 8.12891 39.3395 7.37109C39.8395 6.60547 40.5544 6.02344 41.4841 5.625C42.4216 5.22656 43.5505 5.02734 44.8708 5.02734C47.027 5.02734 48.6481 5.5 49.7341 6.44531C50.8278 7.39063 51.402 8.65234 51.4567 10.2305L47.988 10.3828C47.8395 9.5 47.5192 8.86719 47.027 8.48438C46.5427 8.09375 45.8122 7.89844 44.8356 7.89844C43.8278 7.89844 43.0387 8.10547 42.4684 8.51953C42.1012 8.78516 41.9177 9.14062 41.9177 9.58594C41.9177 9.99219 42.0895 10.3398 42.4333 10.6289C42.8708 10.9961 43.9333 11.3789 45.6208 11.7773C47.3083 12.1758 48.5544 12.5898 49.3591 13.0195C50.1716 13.4414 50.8044 14.0234 51.2575 14.7656C51.7184 15.5 51.9489 16.4102 51.9489 17.4961C51.9489 18.4805 51.6755 19.4023 51.1286 20.2617C50.5817 21.1211 49.8083 21.7617 48.8083 22.1836C47.8083 22.5977 46.5622 22.8047 45.07 22.8047C42.8981 22.8047 41.2302 22.3047 40.0661 21.3047C38.902 20.2969 38.2067 18.832 37.9802 16.9102ZM53.2037 14.0156C53.2037 12.2656 53.4655 10.7969 53.9889 9.60938C54.3795 8.73438 54.9108 7.94922 55.5827 7.25391C56.2623 6.55859 57.0045 6.04297 57.8092 5.70703C58.8795 5.25391 60.1139 5.02734 61.5123 5.02734C64.0436 5.02734 66.067 5.8125 67.5827 7.38281C69.1061 8.95312 69.8678 11.1367 69.8678 13.9336C69.8678 16.707 69.1139 18.8789 67.6061 20.4492C66.0983 22.0117 64.0827 22.793 61.5592 22.793C59.0045 22.793 56.9733 22.0156 55.4655 20.4609C53.9577 18.8984 53.2037 16.75 53.2037 14.0156ZM56.778 13.8984C56.778 15.8438 57.2272 17.3203 58.1256 18.3281C59.0241 19.3281 60.1647 19.8281 61.5475 19.8281C62.9303 19.8281 64.0631 19.332 64.9459 18.3398C65.8366 17.3398 66.2819 15.8438 66.2819 13.8516C66.2819 11.8828 65.8483 10.4141 64.9811 9.44531C64.1217 8.47656 62.9772 7.99219 61.5475 7.99219C60.1178 7.99219 58.9655 8.48438 58.0905 9.46875C57.2155 10.4453 56.778 11.9219 56.778 13.8984ZM71.6734 22.5V5.32031H75.1422V12.9492L82.15 5.32031H86.8141L80.3453 12.0117L87.1656 22.5H82.6773L77.9547 14.4375L75.1422 17.3086V22.5H71.6734ZM87.3072 14.0156C87.3072 12.2656 87.5689 10.7969 88.0923 9.60938C88.483 8.73438 89.0142 7.94922 89.6861 7.25391C90.3658 6.55859 91.108 6.04297 91.9127 5.70703C92.983 5.25391 94.2173 5.02734 95.6158 5.02734C98.147 5.02734 100.17 5.8125 101.686 7.38281C103.21 8.95312 103.971 11.1367 103.971 13.9336C103.971 16.707 103.217 18.8789 101.71 20.4492C100.202 22.0117 98.1861 22.793 95.6627 22.793C93.108 22.793 91.0767 22.0156 89.5689 20.4609C88.0611 18.8984 87.3072 16.75 87.3072 14.0156ZM90.8814 13.8984C90.8814 15.8438 91.3306 17.3203 92.2291 18.3281C93.1275 19.3281 94.2681 19.8281 95.6509 19.8281C97.0337 19.8281 98.1666 19.332 99.0494 18.3398C99.94 17.3398 100.385 15.8438 100.385 13.8516C100.385 11.8828 99.9517 10.4141 99.0845 9.44531C98.2252 8.47656 97.0806 7.99219 95.6509 7.99219C94.2212 7.99219 93.0689 8.48438 92.1939 9.46875C91.3189 10.4453 90.8814 11.9219 90.8814 13.8984ZM105.824 22.5V5.46094H109.293V19.6055H117.918V22.5H105.824ZM118.563 16.9102L121.938 16.582C122.141 17.7148 122.551 18.5469 123.168 19.0781C123.793 19.6094 124.633 19.875 125.688 19.875C126.805 19.875 127.645 19.6406 128.207 19.1719C128.778 18.6953 129.063 18.1406 129.063 17.5078C129.063 17.1016 128.942 16.7578 128.7 16.4766C128.465 16.1875 128.051 15.9375 127.457 15.7266C127.051 15.5859 126.125 15.3359 124.68 14.9766C122.821 14.5156 121.516 13.9492 120.766 13.2773C119.711 12.332 119.184 11.1797 119.184 9.82031C119.184 8.94531 119.43 8.12891 119.922 7.37109C120.422 6.60547 121.137 6.02344 122.067 5.625C123.004 5.22656 124.133 5.02734 125.454 5.02734C127.61 5.02734 129.231 5.5 130.317 6.44531C131.411 7.39063 131.985 8.65234 132.04 10.2305L128.571 10.3828C128.422 9.5 128.102 8.86719 127.61 8.48438C127.125 8.09375 126.395 7.89844 125.418 7.89844C124.411 7.89844 123.622 8.10547 123.051 8.51953C122.684 8.78516 122.5 9.14062 122.5 9.58594C122.5 9.99219 122.672 10.3398 123.016 10.6289C123.454 10.9961 124.516 11.3789 126.204 11.7773C127.891 12.1758 129.137 12.5898 129.942 13.0195C130.754 13.4414 131.387 14.0234 131.84 14.7656C132.301 15.5 132.532 16.4102 132.532 17.4961C132.532 18.4805 132.258 19.4023 131.711 20.2617C131.165 21.1211 130.391 21.7617 129.391 22.1836C128.391 22.5977 127.145 22.8047 125.653 22.8047C123.481 22.8047 121.813 22.3047 120.649 21.3047C119.485 20.2969 118.79 18.832 118.563 16.9102ZM138.357 22.5V8.22656H133.259V5.32031H146.912V8.22656H141.826V22.5H138.357ZM152.713 22.5V15.2695L146.42 5.32031H150.487L154.53 12.1172L158.491 5.32031H162.487L156.17 15.293V22.5H152.713ZM163.343 22.5V5.46094H166.812V19.6055H175.437V22.5H163.343ZM175.473 22.5V19.3711L184.496 8.22656H176.492V5.32031H189.067V8.01562L179.657 19.6055H189.43V22.5H175.473Z" fill="#0A0A0A"/>
</svg>